<svg width="50" height="50" viewBox="0 0 50 50" fill="none" xmlns="http://www.w3.org/2000/svg">
<path d="M10.4167 20.8333C8.125 20.8333 6.25 22.7083 6.25 25C6.25 27.2917 8.125 29.1667 10.4167 29.1667C12.7083 29.1667 14.5833 27.2917 14.5833 25C14.5833 22.7083 12.7083 20.8333 10.4167 20.8333ZM39.5833 20.8333C37.2917 20.8333 35.4167 22.7083 35.4167 25C35.4167 27.2917 37.2917 29.1667 39.5833 29.1667C41.875 29.1667 43.75 27.2917 43.75 25C43.75 22.7083 41.875 20.8333 39.5833 20.8333ZM25 20.8333C22.7083 20.8333 20.8333 22.7083 20.8333 25C20.8333 27.2917 22.7083 29.1667 25 29.1667C27.2917 29.1667 29.1667 27.2917 29.1667 25C29.1667 22.7083 27.2917 20.8333 25 20.8333Z" stroke="#58FFBC" stroke-width="3"/>
</svg>
