<svg width="50" height="50" viewBox="0 0 50 50" fill="none" xmlns="http://www.w3.org/2000/svg">
<path d="M25.25 26.625C25.084 26.6041 24.916 26.6041 24.75 26.625C22.9832 26.5655 21.3088 25.8216 20.0803 24.5504C18.8519 23.2792 18.1657 21.5802 18.1667 19.8125C18.1667 16.0416 21.2083 12.9791 25 12.9791C26.7905 12.976 28.5105 13.6767 29.7892 14.93C31.0679 16.1833 31.8029 17.8889 31.8357 19.6791C31.8685 21.4693 31.1965 23.2007 29.9646 24.5C28.7326 25.7993 27.0394 26.5625 25.25 26.625ZM39.0417 40.375C35.2131 43.8939 30.2001 45.8425 25 45.8333C19.5833 45.8333 14.6667 43.7708 10.9583 40.375C11.1667 38.4166 12.4167 36.5 14.6458 35C20.3542 31.2083 29.6875 31.2083 35.3542 35C37.5833 36.5 38.8333 38.4166 39.0417 40.375Z" stroke="#08FF9C" stroke-width="3" stroke-linecap="round" stroke-linejoin="round"/>
<path d="M25 45.8334C36.5062 45.8334 45.8333 36.5063 45.8333 25C45.8333 13.4938 36.5062 4.16669 25 4.16669C13.4937 4.16669 4.16666 13.4938 4.16666 25C4.16666 36.5063 13.4937 45.8334 25 45.8334Z" stroke="#08FF9C" stroke-width="3" stroke-linecap="round" stroke-linejoin="round"/>
</svg>
