<svg width="50" height="50" viewBox="0 0 50 50" fill="none" xmlns="http://www.w3.org/2000/svg">
<path d="M25 16.6667V4.16667M25 4.16667L20.8333 8.33334M25 4.16667L29.1667 8.33334" stroke="#08FF9C" stroke-width="3" stroke-linecap="round" stroke-linejoin="round"/>
<path d="M10.4167 25V20.8333C10.4167 16.6458 10.4167 13.1875 16.6667 12.5833M39.5833 25V20.8333C39.5833 16.6458 39.5833 13.1875 33.3333 12.5833M14.5833 25C6.25 25 6.25 28.7292 6.25 33.3333V35.4167C6.25 41.1667 6.25 45.8333 16.6667 45.8333H33.3333C41.6667 45.8333 43.75 41.1667 43.75 35.4167V33.3333C43.75 28.7292 43.75 25 35.4167 25C33.3333 25 32.75 25.4375 31.6667 26.25L29.5417 28.5C28.9574 29.1214 28.2522 29.6166 27.4693 29.9552C26.6864 30.2937 25.8425 30.4683 24.9896 30.4683C24.1367 30.4683 23.2928 30.2937 22.5099 29.9552C21.727 29.6166 21.0217 29.1214 20.4375 28.5L18.3333 26.25C17.25 25.4375 16.6667 25 14.5833 25Z" stroke="#08FF9C" stroke-width="3" stroke-miterlimit="10" stroke-linecap="round" stroke-linejoin="round"/>
</svg>
