<svg width="50" height="50" viewBox="0 0 50 50" fill="none" xmlns="http://www.w3.org/2000/svg">
<path d="M25 31.25C26.6576 31.25 28.2473 30.5915 29.4194 29.4194C30.5915 28.2473 31.25 26.6576 31.25 25C31.25 23.3424 30.5915 21.7527 29.4194 20.5806C28.2473 19.4085 26.6576 18.75 25 18.75C23.3424 18.75 21.7527 19.4085 20.5806 20.5806C19.4085 21.7527 18.75 23.3424 18.75 25C18.75 26.6576 19.4085 28.2473 20.5806 29.4194C21.7527 30.5915 23.3424 31.25 25 31.25Z" stroke="#08FF9C" stroke-width="3" stroke-miterlimit="10" stroke-linecap="round" stroke-linejoin="round"/>
<path d="M4.16666 26.8333V23.1667C4.16666 21 5.93749 19.2083 8.12499 19.2083C11.8958 19.2083 13.4375 16.5417 11.5417 13.2708C10.4583 11.3958 11.1042 8.95834 13 7.87501L16.6042 5.81251C18.25 4.83334 20.375 5.41668 21.3542 7.06251L21.5833 7.45834C23.4583 10.7292 26.5417 10.7292 28.4375 7.45834L28.6667 7.06251C29.6458 5.41668 31.7708 4.83334 33.4167 5.81251L37.0208 7.87501C38.9167 8.95834 39.5625 11.3958 38.4792 13.2708C36.5833 16.5417 38.125 19.2083 41.8958 19.2083C44.0625 19.2083 45.8542 20.9792 45.8542 23.1667V26.8333C45.8542 29 44.0833 30.7917 41.8958 30.7917C38.125 30.7917 36.5833 33.4583 38.4792 36.7292C39.5625 38.625 38.9167 41.0417 37.0208 42.125L33.4167 44.1875C31.7708 45.1667 29.6458 44.5833 28.6667 42.9375L28.4375 42.5417C26.5625 39.2708 23.4792 39.2708 21.5833 42.5417L21.3542 42.9375C20.375 44.5833 18.25 45.1667 16.6042 44.1875L13 42.125C12.0919 41.6021 11.4283 40.7403 11.1549 39.7287C10.8815 38.7171 11.0206 37.6383 11.5417 36.7292C13.4375 33.4583 11.8958 30.7917 8.12499 30.7917C5.93749 30.7917 4.16666 29 4.16666 26.8333Z" stroke="#08FF9C" stroke-width="3" stroke-miterlimit="10" stroke-linecap="round" stroke-linejoin="round"/>
</svg>
