<svg width="50" height="50" viewBox="0 0 50 50" fill="none" xmlns="http://www.w3.org/2000/svg">
<path d="M18.3542 4.16663L10.8125 11.7291M31.6458 4.16663L39.1875 11.7291" stroke="#04001A" stroke-width="3" stroke-miterlimit="10" stroke-linecap="round" stroke-linejoin="round"/>
<path d="M4.16666 16.3542C4.16666 12.5 6.22916 12.1875 8.79166 12.1875H41.2083C43.7708 12.1875 45.8333 12.5 45.8333 16.3542C45.8333 20.8333 43.7708 20.5208 41.2083 20.5208H8.79166C6.22916 20.5208 4.16666 20.8333 4.16666 16.3542Z" stroke="#04001A" stroke-width="3"/>
<path d="M20.3333 29.1667V36.5625M29.9167 29.1667V36.5625M7.29166 20.8334L10.2292 38.8334C10.8958 42.875 12.5 45.8334 18.4583 45.8334H31.0208C37.5 45.8334 38.4583 43 39.2083 39.0834L42.7083 20.8334" stroke="#04001A" stroke-width="3" stroke-linecap="round"/>
</svg>
