<svg width="50" height="50" viewBox="0 0 50 50" fill="none" xmlns="http://www.w3.org/2000/svg">
<path d="M20.8334 12.5H29.1667C33.3334 12.5 33.3334 10.4166 33.3334 8.33329C33.3334 4.16663 31.25 4.16663 29.1667 4.16663H20.8334C18.75 4.16663 16.6667 4.16663 16.6667 8.33329C16.6667 12.5 18.75 12.5 20.8334 12.5Z" stroke="#04001A" stroke-width="3" stroke-miterlimit="10" stroke-linecap="round" stroke-linejoin="round"/>
<path d="M29.1667 45.8333H18.75C8.33333 45.8333 6.25 41.6667 6.25 33.3333V20.8333C6.25 11.3333 9.72917 8.75 16.6667 8.375M33.3333 8.375C40.2708 8.75 43.75 11.3125 43.75 20.8333V31.25M31.25 39.5833V33.3333H37.5M43.75 45.8333L31.3333 33.4167" stroke="#04001A" stroke-width="3" stroke-miterlimit="10" stroke-linecap="round" stroke-linejoin="round"/>
</svg>
