<svg width="50" height="50" viewBox="0 0 50 50" fill="none" xmlns="http://www.w3.org/2000/svg">
<path d="M35.4167 38.3958H27.0833L17.8125 44.5625C17.4996 44.7711 17.136 44.8908 16.7604 44.9089C16.3848 44.927 16.0114 44.8428 15.6799 44.6653C15.3484 44.4878 15.0713 44.2236 14.8782 43.901C14.6851 43.5784 14.5832 43.2093 14.5833 42.8333V38.3958C8.33332 38.3958 4.16666 34.2292 4.16666 27.9792V15.4792C4.16666 9.22917 8.33332 5.0625 14.5833 5.0625H35.4167C41.6667 5.0625 45.8333 9.22917 45.8333 15.4792V27.9792C45.8333 34.2292 41.6667 38.3958 35.4167 38.3958Z" stroke="#2C2C2C" stroke-width="3" stroke-miterlimit="10" stroke-linecap="round" stroke-linejoin="round"/>
<path d="M25 23.6667V23.2292C25 21.8125 25.875 21.0625 26.75 20.4583C27.6042 19.875 28.4583 19.125 28.4583 17.75C28.4583 15.8333 26.9167 14.2917 25 14.2917C23.0833 14.2917 21.5417 15.8333 21.5417 17.75M24.9896 28.6458H25.0104" stroke="#2C2C2C" stroke-width="3" stroke-linecap="round" stroke-linejoin="round"/>
</svg>
