<svg width="50" height="50" viewBox="0 0 50 50" fill="none" xmlns="http://www.w3.org/2000/svg">
<path d="M25.0417 6.0625C18.1458 6.0625 12.5417 11.6667 12.5417 18.5625V24.5833C12.5417 25.8542 12 27.7917 11.3542 28.875L8.95833 32.8542C7.47917 35.3125 8.5 38.0417 11.2083 38.9583C20.1875 41.9583 29.875 41.9583 38.8542 38.9583C41.375 38.125 42.4792 35.1458 41.1042 32.8542L38.7083 28.875C38.0833 27.7917 37.5417 25.8542 37.5417 24.5833V18.5625C37.5417 11.6875 31.9167 6.0625 25.0417 6.0625Z" stroke="#2C2C2C" stroke-width="3" stroke-miterlimit="10" stroke-linecap="round"/>
<path d="M28.8958 6.66669C26.3765 5.94917 23.7069 5.94917 21.1875 6.66669C21.7917 5.12502 23.2917 4.04169 25.0417 4.04169C26.7917 4.04169 28.2917 5.12502 28.8958 6.66669Z" stroke="#2C2C2C" stroke-width="3" stroke-miterlimit="10" stroke-linecap="round" stroke-linejoin="round"/>
<path d="M31.2917 39.7083C31.2917 43.1458 28.4792 45.9583 25.0417 45.9583C23.3333 45.9583 21.75 45.25 20.625 44.125C19.4545 42.9527 18.7954 41.3649 18.7917 39.7083" stroke="#2C2C2C" stroke-width="3" stroke-miterlimit="10"/>
</svg>
