<svg width="50" height="50" viewBox="0 0 50 50" fill="none" xmlns="http://www.w3.org/2000/svg">
<path d="M25 38.5417C28.5915 38.5417 32.0359 37.115 34.5754 34.5754C37.115 32.0358 38.5417 28.5915 38.5417 25C38.5417 21.4085 37.115 17.9641 34.5754 15.4246C32.0359 12.885 28.5915 11.4583 25 11.4583C21.4085 11.4583 17.9642 12.885 15.4246 15.4246C12.8851 17.9641 11.4583 21.4085 11.4583 25C11.4583 28.5915 12.8851 32.0358 15.4246 34.5754C17.9642 37.115 21.4085 38.5417 25 38.5417Z" stroke="black" stroke-width="3" stroke-linecap="round" stroke-linejoin="round"/>
<path d="M39.875 39.875L39.6042 39.6042M39.6042 10.3958L39.875 10.125M10.125 39.875L10.3958 39.6042M25 4.33334V4.16667M25 45.8333V45.6667M4.33332 25H4.16666M45.8333 25H45.6667M10.3958 10.3958L10.125 10.125" stroke="black" stroke-width="3" stroke-linecap="round" stroke-linejoin="round"/>
</svg>
