<svg width="25" height="25" viewBox="0 0 25 25" fill="none" xmlns="http://www.w3.org/2000/svg">
<path d="M12.5208 3.03125C9.07292 3.03125 6.27083 5.83333 6.27083 9.28125V12.2917C6.27083 12.9271 6 13.8958 5.67708 14.4375L4.47917 16.4271C3.73958 17.6563 4.25 19.0208 5.60417 19.4792C10.0937 20.9792 14.9375 20.9792 19.4271 19.4792C20.6875 19.0625 21.2396 17.5729 20.5521 16.4271L19.3542 14.4375C19.0417 13.8958 18.7708 12.9271 18.7708 12.2917V9.28125C18.7708 5.84375 15.9583 3.03125 12.5208 3.03125Z" stroke="#535353" stroke-width="2" stroke-miterlimit="10" stroke-linecap="round"/>
<path d="M14.4479 3.33331C13.1882 2.97455 11.8534 2.97455 10.5938 3.33331C10.8958 2.56248 11.6458 2.02081 12.5208 2.02081C13.3958 2.02081 14.1458 2.56248 14.4479 3.33331Z" stroke="#535353" stroke-width="2" stroke-miterlimit="10" stroke-linecap="round" stroke-linejoin="round"/>
<path d="M15.6458 19.8542C15.6458 21.5729 14.2396 22.9792 12.5208 22.9792C11.6667 22.9792 10.875 22.625 10.3125 22.0625C9.72726 21.4764 9.39771 20.6825 9.39584 19.8542" stroke="#535353" stroke-width="2" stroke-miterlimit="10"/>
</svg>
