<svg width="25" height="25" viewBox="0 0 25 25" fill="none" xmlns="http://www.w3.org/2000/svg">
<path d="M12.625 13.3125C12.542 13.3021 12.458 13.3021 12.375 13.3125C11.4916 13.2828 10.6544 12.9108 10.0401 12.2752C9.42592 11.6396 9.08282 10.7901 9.08332 9.90623C9.08332 8.02082 10.6042 6.48957 12.5 6.48957C13.3952 6.48801 14.2552 6.83833 14.8946 7.46499C15.534 8.09165 15.9014 8.94445 15.9178 9.83955C15.9342 10.7347 15.5982 11.6004 14.9823 12.25C14.3663 12.8997 13.5197 13.2812 12.625 13.3125ZM19.5208 20.1875C17.6065 21.9469 15.1 22.9213 12.5 22.9167C9.79166 22.9167 7.33332 21.8854 5.47916 20.1875C5.58332 19.2083 6.20832 18.25 7.32291 17.5C10.1771 15.6042 14.8437 15.6042 17.6771 17.5C18.7917 18.25 19.4167 19.2083 19.5208 20.1875Z" stroke="#535353" stroke-width="2" stroke-linecap="round" stroke-linejoin="round"/>
<path d="M12.5 22.9166C18.2531 22.9166 22.9167 18.2531 22.9167 12.5C22.9167 6.74686 18.2531 2.08331 12.5 2.08331C6.74689 2.08331 2.08334 6.74686 2.08334 12.5C2.08334 18.2531 6.74689 22.9166 12.5 22.9166Z" stroke="#535353" stroke-width="2" stroke-linecap="round" stroke-linejoin="round"/>
</svg>
