<svg width="25" height="25" viewBox="0 0 25 25" fill="none" xmlns="http://www.w3.org/2000/svg">
<path d="M12.5 15.625C13.3288 15.625 14.1237 15.2958 14.7097 14.7097C15.2958 14.1237 15.625 13.3288 15.625 12.5C15.625 11.6712 15.2958 10.8763 14.7097 10.2903C14.1237 9.70424 13.3288 9.375 12.5 9.375C11.6712 9.375 10.8763 9.70424 10.2903 10.2903C9.70424 10.8763 9.375 11.6712 9.375 12.5C9.375 13.3288 9.70424 14.1237 10.2903 14.7097C10.8763 15.2958 11.6712 15.625 12.5 15.625Z" stroke="#535353" stroke-width="2" stroke-miterlimit="10" stroke-linecap="round" stroke-linejoin="round"/>
<path d="M2.08334 13.4166V11.5833C2.08334 10.5 2.96876 9.60414 4.06251 9.60414C5.94793 9.60414 6.71876 8.27081 5.77084 6.63539C5.22918 5.69789 5.55209 4.47914 6.50001 3.93747L8.30209 2.90622C9.12501 2.41664 10.1875 2.70831 10.6771 3.53122L10.7917 3.72914C11.7292 5.36456 13.2708 5.36456 14.2188 3.72914L14.3333 3.53122C14.8229 2.70831 15.8854 2.41664 16.7083 2.90622L18.5104 3.93747C19.4583 4.47914 19.7813 5.69789 19.2396 6.63539C18.2917 8.27081 19.0625 9.60414 20.9479 9.60414C22.0313 9.60414 22.9271 10.4896 22.9271 11.5833V13.4166C22.9271 14.5 22.0417 15.3958 20.9479 15.3958C19.0625 15.3958 18.2917 16.7291 19.2396 18.3646C19.7813 19.3125 19.4583 20.5208 18.5104 21.0625L16.7083 22.0937C15.8854 22.5833 14.8229 22.2916 14.3333 21.4687L14.2188 21.2708C13.2813 19.6354 11.7396 19.6354 10.7917 21.2708L10.6771 21.4687C10.1875 22.2916 9.12501 22.5833 8.30209 22.0937L6.50001 21.0625C6.04595 20.801 5.71416 20.3701 5.57745 19.8643C5.44075 19.3585 5.5103 18.8191 5.77084 18.3646C6.71876 16.7291 5.94793 15.3958 4.06251 15.3958C2.96876 15.3958 2.08334 14.5 2.08334 13.4166Z" stroke="#535353" stroke-width="2" stroke-miterlimit="10" stroke-linecap="round" stroke-linejoin="round"/>
</svg>
